<?xml version="1.0" encoding="UTF-8"?>
<svg width="16" height="16" viewBox="0 0 31 21" version="1.1" xmlns="http://www.w3.org/2000/svg" xmlns:xlink="http://www.w3.org/1999/xlink">
    <title>B43A7DB3-ECB0-4ACC-8701-516798422F47</title>
    <g id="Website" stroke="none" stroke-width="1" fill="none" fill-rule="evenodd">
        <g id="Homepage" transform="translate(-150.000000, -45.000000)">
            <g id="Menu" transform="translate(150.000000, 31.000000)">
                <g id="Header-Menu-Copy-4" transform="translate(0.000000, 12.000000)">
                    <g id="BB_logo_red-white_RGB" transform="translate(0.000000, 2.000000)">
                        <path d="M26.6757015,0.3226034 L9.35108418,0.3226034 L11.8383291,4.67794554 L12.8380102,4.67794554 L12.9815051,4.68274746 L24.6141582,4.68274746 C24.9154974,4.68274746 25.6425383,4.831607 25.6473214,5.80639692 L25.6473214,14.829206 C25.6425383,15.8087979 24.9154974,15.9528555 24.6141582,15.9528555 L9.94419643,15.9864689 L9.9346301,12.28899 L22.0121173,12.28899 L22.0121173,8.14013041 L9.67633929,8.15453617 L5.01753827,0.284188034 L1.13686838e-13,0.284188034 L5.625,10.1233237 L5.62021684,20.2793861 L9.81505102,20.2793861 L9.81505102,20.284188 L26.9483418,20.284188 C28.8759566,20.284188 30,18.5987138 30,15.2133597 L30,4.69715322 C30,1.801595 28.8759566,0.3226034 26.6757015,0.3226034" id="Path" fill="#C12121"></path>
                        <path d="M87.7502668,12.2707684 L74.2356457,12.2707684 L74.2356457,20.284188 L70,20.284188 L70,4.34841042 C70,1.62135554 71.3946638,0.284188034 74.0665955,0.284188034 L88.3982924,0.284188034 C90.811953,0.284188034 92,1.75555156 92,4.65035147 L92,7.72727454 L92,14.5185518 L92,20.284188 L87.7643543,20.284188 L87.7502668,12.2707684 Z M87.7220918,7.95253215 L87.7220918,5.80060308 C87.745571,4.88040179 86.8956243,4.63118061 86.6843116,4.63118061 L75.2546425,4.63118061 C74.9588047,4.63118061 74.2403415,4.77975477 74.2403415,5.75746865 L74.2403415,7.95253215 L87.7220918,7.95253215 L87.7220918,7.95253215 Z" id="Shape" fill="#FFFFFF"></path>
                        <polygon id="Path" fill="#FFFFFF" points="122.230958 12.2755508 122.230958 20.2601957 118 20.2601957 118 0.288986499 122.230958 0.288986499 122.230958 7.96173122 129.63279 7.96173122 134.079518 0.284188034 139 0.284188034 133.483806 10.1066448 139 20.284188 134.112352 20.284188 129.585883 12.2755508"></polygon>
                        <polygon id="Path" fill="#FFFFFF" points="220 20.284188 220 0.284188034 241 0.284188034 241 4.65514418 224.252262 4.65514418 224.252262 7.96211758 241 7.96211758 241 12.2803539 224.252262 12.2803539 224.252262 15.9371955 241 15.9371955 241 20.284188"></polygon>
                        <path d="M210.353379,15.9079884 C210.648068,15.9079884 211.375284,15.759236 211.380037,14.7803493 L211.380037,13.3743992 C211.375284,12.4003109 210.652821,12.2515585 210.353379,12.2515585 L196.707378,12.24676 C194.687332,12.24676 193.808018,10.7544376 193.808018,7.72660646 L193.808018,4.65558919 C193.808018,1.75251817 194.83943,0.284188034 196.854722,0.284188034 L216,0.284188034 L213.466625,4.64119379 L199.121926,4.63159686 C198.822484,4.63159686 198.100021,4.78034926 198.090515,5.75923602 L198.090515,6.84368899 C198.100021,7.82257575 198.822484,7.96652968 199.121926,7.96652968 L212.416202,7.96173122 C214.645381,7.96173122 215.762348,9.28610742 215.762348,12.4434971 L215.762348,15.1786218 C215.762348,18.5951285 214.645381,20.284188 212.416202,20.284188 L193,20.284188 L195.614176,15.9175853 L210.353379,15.9079884 Z" id="Path" fill="#FFFFFF"></path>
                        <path d="M115.985417,4.64791187 L100.478472,4.6575342 C100.172222,4.6575342 99.4333333,4.80668022 99.4284722,5.78334608 L99.4284722,12.6103848 L99.4284722,14.8187081 C99.4333333,15.8001851 100.172222,15.94452 100.478472,15.94452 L116,15.9397088 L116,20.284188 L98.3833333,20.284188 C96.1472222,20.284188 95,18.5954702 95,15.2036011 L95,4.66715652 C95,1.76121474 96.1423611,0.284188034 98.3833333,0.284188034 L116,0.284188034 L116,4.64791187 L115.985417,4.64791187 Z" id="Path" fill="#FFFFFF"></path>
                        <path d="M65,4.24522022 C65,1.33734943 63.829481,0.255909874 61.6659398,0.284748262 L43,0.284748262 L43,20.284188 L61.6659398,20.284188 C63.829481,20.2889768 65,19.313278 65,16.4102136 L65,12.9448006 C65,11.8201035 64.7841256,10.9549518 64.3763628,10.3301201 C64.7841256,9.70048196 65,8.84013672 65,7.71543958 L65,4.24522022 L65,4.24522022 Z M60.567379,14.7664255 C60.591365,15.6940603 59.7230702,15.943993 59.5071958,15.943993 L47.3510685,15.9391866 L47.3510685,12.2719049 L59.5071958,12.2670985 C59.7230702,12.2670985 60.591365,12.5122248 60.567379,13.4398596 L60.567379,14.7664255 Z M60.567379,6.75896638 C60.591365,7.6866012 59.7230702,7.93172749 59.5071958,7.93172749 L47.3510685,7.9269211 L47.3510685,4.63453846 L59.5071958,4.62973206 C59.7230702,4.62973206 60.591365,4.87485836 60.567379,5.80249318 L60.567379,6.75896638 Z" id="Shape" fill="#FFFFFF"></path>
                        <path d="M164,4.24522022 C164,1.33734943 162.829226,0.255909874 160.665213,0.284748262 L142,0.284748262 L142,9.65241798 L142,11.0030158 L142,20.284188 L160.665213,20.284188 C162.829226,20.2889768 164,19.313278 164,16.4102136 L164,12.9448006 C164,11.8201035 163.784079,10.9549518 163.376227,10.3301201 C163.784079,9.70048196 164,8.84013672 164,7.71543958 L164,4.24522022 Z M159.57121,14.7664255 C159.595202,15.6940603 158.721919,15.943993 158.510796,15.943993 L146.352017,15.9391866 L146.352017,12.2719049 L158.510796,12.2670985 C158.726718,12.2670985 159.595202,12.5122248 159.57121,13.4398596 L159.57121,14.7664255 Z M159.57121,6.75896638 C159.595202,7.6866012 158.721919,7.93172749 158.510796,7.93172749 L146.352017,7.9269211 L146.352017,4.63453846 L158.510796,4.62973206 C158.726718,4.62973206 159.595202,4.87485836 159.57121,5.80249318 L159.57121,6.75896638 Z" id="Shape" fill="#FFFFFF"></path>
                        <path d="M186.745571,12.2707684 L173.235646,12.2707684 L173.235646,20.284188 L169,20.284188 L169,4.34841042 C169,1.62135554 170.39936,0.284188034 173.071291,0.284188034 L187.402988,0.284188034 C189.811953,0.284188034 191,1.75555156 191,4.65035147 L191,7.72727454 L191,14.5185518 L191,20.284188 L186.764354,20.284188 L186.745571,12.2707684 Z M186.717396,7.95253215 L186.717396,5.80060308 C186.740875,4.88040179 185.890928,4.63118061 185.679616,4.63118061 L174.254642,4.63118061 C173.958805,4.63118061 173.240342,4.77975477 173.240342,5.75746865 L173.240342,7.95253215 L186.717396,7.95253215 L186.717396,7.95253215 Z" id="Shape" fill="#FFFFFF"></path>
                    </g>
                </g>
            </g>
        </g>
    </g>
</svg>