<?xml version="1.0" encoding="UTF-8"?>
<svg xmlns="http://www.w3.org/2000/svg" xmlns:xlink="http://www.w3.org/1999/xlink" width="16px" height="16px" viewBox="0 0 16 16" version="1.1">
<g id="surface1">
<path style=" stroke:none;fill-rule:nonzero;fill:rgb(0%,0%,0%);fill-opacity:1;" d="M 1.5 1.25 C 1.5 2.25 1.75 2.5 2.75 2.5 C 3.75 2.5 4 2.75 4 3.75 C 4 4.648438 4.25 5 5 5 C 5.851562 5 6 4.648438 6 2.5 L 6 0 L 3.75 0 C 1.699219 0 1.5 0.101562 1.5 1.25 Z M 1.5 1.25 "/>
<path style=" stroke:none;fill-rule:nonzero;fill:rgb(0%,0%,0%);fill-opacity:1;" d="M 7.5 1.199219 C 7.5 2.25 7.75 2.449219 9.398438 2.601562 C 10.898438 2.699219 11.300781 2.949219 11.398438 3.898438 C 11.699219 5.898438 10.699219 6.5 7.199219 6.5 L 4 6.5 L 4 16 L 7.699219 16 C 10.601562 16 11.648438 15.800781 12.648438 15 C 15.101562 13.050781 14.800781 8.851562 12.199219 8.199219 L 10.851562 7.851562 L 12.101562 7.199219 C 13.648438 6.398438 14.25 4.351562 13.5 2.5 C 12.851562 0.949219 11.148438 0 9 0 C 7.75 0 7.5 0.199219 7.5 1.199219 Z M 11.898438 10.648438 C 12.148438 12.75 11.25 13.5 8.449219 13.5 L 6 13.5 L 6 8.949219 L 8.898438 9.101562 C 11.601562 9.25 11.75 9.300781 11.898438 10.648438 Z M 11.898438 10.648438 "/>
</g>
</svg>
