<?xml version="1.0" encoding="UTF-8"?>
<svg xmlns="http://www.w3.org/2000/svg" width="16px" height="16px" viewBox="0 0 16 16" version="1.1">
<g id="surface1">
<path style=" stroke:none;fill-rule:evenodd;fill:rgb(0%,0%,0%);fill-opacity:1;" d="M 2.714844 7.089844 C 2.652344 7.320312 2.507812 7.789062 2.292969 8.113281 C 2.132812 8.347656 1.957031 8.464844 1.824219 8.59375 C 1.632812 8.777344 1.5 8.972656 1.5 9.375 C 1.5 9.511719 1.613281 9.625 1.75 9.625 C 1.886719 9.625 2 9.511719 2 9.375 C 2 9.105469 2.113281 9 2.253906 8.878906 C 2.394531 8.753906 2.554688 8.617188 2.707031 8.386719 C 2.789062 8.265625 2.859375 8.121094 2.917969 7.976562 C 3.050781 8.285156 3.242188 8.578125 3.496094 8.847656 C 3.480469 9.234375 3.351562 9.578125 3.15625 9.792969 C 3.039062 9.917969 2.902344 10 2.75 10 C 2.679688 10 2.609375 10.03125 2.5625 10.085938 C 2.515625 10.140625 2.492188 10.210938 2.503906 10.28125 C 2.503906 10.28125 3 14.53125 3 14.53125 C 3.015625 14.660156 3.132812 14.757812 3.265625 14.75 L 5.511719 14.75 C 5.558594 14.742188 5.75 14.699219 5.75 14.492188 C 5.75 14.449219 5.75 14.226562 5.75 14 C 5.75 13.800781 5.671875 13.609375 5.53125 13.46875 C 5.390625 13.328125 5.199219 13.25 5 13.25 L 4.5 13.25 L 4.5 10.960938 C 4.667969 10.90625 4.824219 10.800781 4.957031 10.648438 C 5.121094 10.457031 5.253906 10.1875 5.320312 9.871094 C 6.28125 10.570312 7.550781 10.660156 8.582031 10.136719 L 9 14.523438 C 9.011719 14.652344 9.121094 14.75 9.25 14.75 L 11.5 14.75 C 11.578125 14.75 11.648438 14.714844 11.695312 14.652344 C 11.746094 14.59375 11.761719 14.515625 11.742188 14.441406 L 11.585938 13.816406 C 11.503906 13.484375 11.203125 13.25 10.859375 13.25 L 10.5 13.25 L 10.5 9.902344 C 11.703125 9.242188 12.5 8.074219 12.5 6.75 C 12.5 6.75 12.5 3.5 12.5 3.5 C 12.5 3.5 14.25 3.5 14.25 3.5 C 14.332031 3.5 14.40625 3.460938 14.453125 3.394531 C 14.5 3.332031 14.511719 3.246094 14.488281 3.171875 C 14.488281 3.171875 14.25 2.457031 14.101562 2.011719 C 14 1.707031 13.710938 1.5 13.390625 1.5 L 11.832031 1.5 L 11.699219 1.398438 C 11.472656 1.230469 11.167969 1.203125 10.914062 1.328125 C 10.660156 1.457031 10.5 1.714844 10.5 2 L 10.5 6.25 C 10.5 6.660156 10.164062 6.992188 9.75 6.992188 C 9.335938 6.992188 9 6.660156 9 6.25 C 9.019531 4.941406 8.671875 4.25 8.265625 3.949219 C 7.578125 3.441406 6.636719 3.929688 6.382812 4.703125 C 6.335938 4.839844 6.269531 4.933594 6.175781 4.976562 C 6.027344 5.039062 5.84375 4.960938 5.660156 4.808594 C 5.660156 4.808594 5.65625 4.804688 5.652344 4.804688 C 5.453125 4.644531 5.160156 4.566406 4.835938 4.574219 C 4.390625 4.585938 3.894531 4.761719 3.578125 5.070312 C 3.574219 5.070312 3.574219 5.070312 3.574219 5.074219 C 2.964844 5.683594 2.6875 6.390625 2.714844 7.089844 Z M 3.472656 14.25 L 5.25 14.25 L 5.25 14 C 5.25 13.933594 5.222656 13.871094 5.175781 13.824219 C 5.128906 13.777344 5.066406 13.75 5 13.75 L 4.25 13.75 C 4.113281 13.75 4 13.636719 4 13.5 L 4 10.75 C 4 10.613281 4.113281 10.5 4.25 10.5 L 4.253906 10.5 C 4.375 10.5 4.484375 10.425781 4.578125 10.320312 C 4.761719 10.109375 4.875 9.761719 4.875 9.375 C 4.875 9.273438 4.9375 9.183594 5.03125 9.144531 C 5.121094 9.105469 5.230469 9.125 5.300781 9.199219 C 6.179688 10.074219 7.519531 10.207031 8.53125 9.59375 L 8.5 9.273438 C 8.488281 9.136719 8.589844 9.015625 8.726562 9 C 8.863281 8.988281 8.984375 9.089844 9 9.226562 C 9 9.226562 9.476562 14.25 9.476562 14.25 C 9.476562 14.25 11.179688 14.25 11.179688 14.25 C 11.179688 14.25 11.101562 13.941406 11.101562 13.941406 C 11.074219 13.828125 10.972656 13.75 10.859375 13.75 L 10.25 13.75 C 10.113281 13.75 10 13.636719 10 13.5 L 10 9.75 C 10 9.644531 10.066406 9.554688 10.15625 9.519531 C 11.253906 8.960938 12 7.929688 12 6.75 L 12 3.25 C 12 3.113281 12.113281 3 12.25 3 C 12.25 3 13.902344 3 13.902344 3 L 13.628906 2.171875 C 13.59375 2.070312 13.496094 2 13.390625 2 L 11.75 2 C 11.691406 2 11.640625 1.980469 11.597656 1.949219 L 11.398438 1.800781 C 11.324219 1.742188 11.222656 1.734375 11.136719 1.777344 C 11.054688 1.816406 11 1.90625 11 2 L 11 6.25 C 11 6.933594 10.441406 7.492188 9.75 7.492188 C 9.058594 7.492188 8.5 6.933594 8.5 6.25 C 8.5 6.25 8.5 6.246094 8.5 6.246094 C 8.515625 5.179688 8.300781 4.59375 7.96875 4.351562 C 7.554688 4.046875 7.011719 4.394531 6.855469 4.859375 C 6.730469 5.246094 6.480469 5.4375 6.199219 5.484375 C 5.941406 5.527344 5.632812 5.4375 5.339844 5.191406 C 5.21875 5.101562 5.039062 5.070312 4.847656 5.074219 C 4.523438 5.082031 4.160156 5.207031 3.921875 5.429688 C 2.964844 6.394531 3.019531 7.664062 3.925781 8.574219 C 3.976562 8.625 4.003906 8.691406 4 8.757812 C 3.996094 9.324219 3.808594 9.820312 3.527344 10.128906 C 3.378906 10.289062 3.210938 10.402344 3.027344 10.457031 Z M 3.472656 14.25 "/>
</g>
</svg>
