<?xml version="1.0" ?><!DOCTYPE svg  PUBLIC '-//W3C//DTD SVG 1.1//EN'  'http://www.w3.org/Graphics/SVG/1.1/DTD/svg11.dtd'><svg height="32px" style="fill-rule:evenodd;clip-rule:evenodd;stroke-linejoin:round;stroke-miterlimit:2;" version="1.1" width="32px" xml:space="preserve" xmlns="http://www.w3.org/2000/svg" xmlns:serif="http://www.serif.com/" xmlns:xlink="http://www.w3.org/1999/xlink"><g id="Layer2"><path d="M5.429,14.176c-0.127,0.464 -0.417,1.404 -0.845,2.047c-0.317,0.476 -0.67,0.706 -0.938,0.965c-0.377,0.364 -0.646,0.759 -0.646,1.562c-0,0.276 0.224,0.5 0.5,0.5c0.276,0 0.5,-0.224 0.5,-0.5c0,-0.541 0.227,-0.748 0.507,-0.994c0.283,-0.249 0.606,-0.524 0.909,-0.979c0.166,-0.249 0.305,-0.535 0.42,-0.824c0.263,0.615 0.651,1.204 1.159,1.744c-0.037,0.774 -0.29,1.456 -0.684,1.888c-0.229,0.252 -0.505,0.415 -0.811,0.415c-0.144,-0 -0.28,0.062 -0.375,0.17c-0.095,0.108 -0.139,0.251 -0.121,0.394c0,-0 0.999,8.495 0.999,8.495c0.032,0.265 0.265,0.457 0.527,0.441l4.47,-0l0.021,-0.003c0.096,-0.015 0.479,-0.1 0.479,-0.512c-0,-0.085 -0,-0.535 -0,-0.985c-0,-0.398 -0.158,-0.779 -0.439,-1.061c-0.282,-0.281 -0.663,-0.439 -1.061,-0.439l-1,0l0,-4.578c0.335,-0.107 0.646,-0.32 0.911,-0.625c0.334,-0.385 0.596,-0.925 0.733,-1.553c1.92,1.398 4.454,1.574 6.522,0.527l0.836,8.776c0.025,0.257 0.24,0.453 0.498,0.453l4.5,-0c0.154,0 0.299,-0.071 0.394,-0.192c0.095,-0.122 0.128,-0.28 0.091,-0.429l-0.311,-1.243c-0.167,-0.668 -0.767,-1.136 -1.455,-1.136l-0.719,0l-0,-6.696c2.41,-1.317 4,-3.655 4,-6.304c0,0 0,-6.5 0,-6.5c0,0 3.5,0 3.5,0c0.161,0 0.312,-0.077 0.406,-0.208c0.094,-0.13 0.119,-0.298 0.068,-0.45c0,-0 -0.477,-1.431 -0.772,-2.316c-0.204,-0.613 -0.777,-1.026 -1.423,-1.026l-3.112,-0l-0.269,-0.201c-0.454,-0.341 -1.062,-0.396 -1.569,-0.142c-0.508,0.254 -0.829,0.773 -0.829,1.341l0,8.502c0,0.821 -0.675,1.486 -1.501,1.486c-0.826,0 -1.498,-0.664 -1.499,-1.484c0.04,-2.621 -0.655,-4.004 -1.466,-4.602c-1.376,-1.015 -3.258,-0.038 -3.769,1.508c-0.091,0.274 -0.224,0.463 -0.41,0.543c-0.301,0.129 -0.669,-0.026 -1.032,-0.333c-0.005,-0.004 -0.01,-0.008 -0.015,-0.012c-0.401,-0.314 -0.991,-0.473 -1.634,-0.456c-0.893,0.022 -1.883,0.377 -2.52,0.989c-0.003,0.003 -0.005,0.005 -0.007,0.007c-1.218,1.218 -1.772,2.637 -1.718,4.03Zm1.516,14.324l3.555,-0l-0,-0.5c-0,-0.133 -0.053,-0.26 -0.146,-0.354c-0.094,-0.093 -0.221,-0.146 -0.354,-0.146l-1.5,-0c-0.276,-0 -0.5,-0.224 -0.5,-0.5l0,-5.5c0,-0.276 0.224,-0.5 0.5,-0.5l0.006,-0c0.246,-0.002 0.465,-0.146 0.65,-0.359c0.369,-0.425 0.594,-1.117 0.594,-1.891c-0,-0.202 0.122,-0.385 0.309,-0.462c0.186,-0.077 0.402,-0.035 0.545,0.108c1.753,1.754 4.434,2.018 6.459,0.789l-0.061,-0.638c-0.026,-0.274 0.176,-0.519 0.45,-0.545c0.275,-0.026 0.519,0.176 0.546,0.451c-0,-0 0.957,10.047 0.957,10.047c-0,-0 3.405,0 3.405,0c-0,0 -0.156,-0.621 -0.156,-0.621c-0.055,-0.223 -0.255,-0.379 -0.485,-0.379l-1.219,-0c-0.276,0 -0.5,-0.224 -0.5,-0.5l-0,-7.5c-0,-0.21 0.13,-0.39 0.313,-0.464c2.196,-1.116 3.687,-3.173 3.687,-5.536l-0,-7c-0,-0.276 0.224,-0.5 0.5,-0.5c-0,-0 3.306,-0 3.306,-0l-0.552,-1.658c-0.068,-0.204 -0.26,-0.342 -0.475,-0.342l-3.279,0c-0.115,0 -0.22,-0.039 -0.305,-0.104l-0.397,-0.297c-0.151,-0.114 -0.353,-0.132 -0.522,-0.047c-0.169,0.084 -0.276,0.257 -0.276,0.446l0,8.502c0,1.371 -1.121,2.486 -2.501,2.486c-1.38,0 -2.499,-1.115 -2.499,-2.486c-0,-0.003 -0,-0.005 -0,-0.008c0.034,-2.135 -0.4,-3.301 -1.059,-3.787c-0.83,-0.612 -1.918,0.085 -2.227,1.017c-0.254,0.767 -0.75,1.156 -1.313,1.249c-0.519,0.086 -1.135,-0.095 -1.72,-0.586c-0.241,-0.183 -0.6,-0.245 -0.982,-0.236c-0.653,0.017 -1.382,0.262 -1.852,0.711c-1.921,1.928 -1.811,4.469 0.007,6.286c0.102,0.102 0.15,0.237 0.146,0.37c-0.004,1.129 -0.385,2.122 -0.949,2.742c-0.291,0.32 -0.631,0.545 -0.998,0.658l0.892,7.584Z" id="Camel"/></g></svg>