<?xml version="1.0" ?><!DOCTYPE svg  PUBLIC '-//W3C//DTD SVG 1.1//EN'  'http://www.w3.org/Graphics/SVG/1.1/DTD/svg11.dtd'><svg enable-background="new 0 0 64 64" height="64px" id="Layer_1" version="1.1" viewBox="0 0 64 64" width="64px" xml:space="preserve" xmlns="http://www.w3.org/2000/svg" xmlns:xlink="http://www.w3.org/1999/xlink"><path d="M55.348,15.843c-0.805-1.803-2.045-2.016-2.719-1.981c-0.877,0.046-1.588-0.362-2.235-0.804  c-1.311-0.891-2.866-1.767-4.768-0.861c-2.062,0.979-3.202,2.78-3.3,5.208c-0.066,1.624,0.188,3.167,0.416,4.329  c0.1,0.51,0.056,1.16-0.121,1.781c-0.119,0.412-0.369,0.694-0.723,0.814c-0.453,0.151-1.019,0.022-1.518-0.349  c-0.69-0.51-1.221-1.201-1.781-1.934c-0.211-0.274-0.422-0.549-0.641-0.813c-1.123-1.366-2.654-1.886-4.004-2.213  c-1.073-0.26-1.925-0.608-2.598-1.467c-1.454-1.849-3.41-2.936-5.656-3.142c-2.897-0.266-5.247,1.115-6.965,4.104  c-1.129,1.961-2.345,3.313-3.825,4.254c-1.299,0.824-2.46,1.821-3.55,3.048c-1.795,2.022-1.854,4.54-1.76,6.945  c0.014,0.363,0.043,0.728,0.072,1.09c0.102,1.258,0.198,2.446-0.419,3.512c-0.208,0.358-0.085,0.817,0.273,1.025  c0.36,0.207,0.818,0.086,1.025-0.273c0.852-1.472,0.732-2.952,0.617-4.384c-0.027-0.342-0.056-0.685-0.068-1.027  c-0.085-2.188-0.043-4.285,1.383-5.892c0.996-1.121,2.053-2.029,3.232-2.778c1.669-1.062,3.083-2.622,4.321-4.771  c1.42-2.471,3.232-3.563,5.528-3.358c1.852,0.17,3.404,1.036,4.613,2.574c0.997,1.271,2.291,1.724,3.424,1.997  c1.164,0.283,2.357,0.686,3.199,1.71c0.209,0.252,0.408,0.512,0.607,0.772c0.601,0.782,1.221,1.591,2.08,2.227  c0.907,0.673,1.961,0.88,2.891,0.563c0.818-0.276,1.432-0.94,1.684-1.822c0.244-0.854,0.298-1.736,0.151-2.482  c-0.212-1.082-0.448-2.512-0.39-3.979c0.076-1.888,0.876-3.168,2.445-3.913c1.08-0.512,1.986-0.134,3.28,0.746  c0.773,0.525,1.839,1.122,3.15,1.062c0.191-0.011,0.772-0.037,1.277,1.095c0.181,0.404,0.247,0.556-0.482,0.902  c-0.31,0.147-0.597,0.18-0.989,0.187c-2.029,0.035-3.17,1.119-3.299,3.134c-0.154,2.391-0.248,4.553-0.289,6.611  c-0.051,2.673-1.41,4.406-4.041,5.152c-3.137,0.89-4.891,2.582-5.361,5.174c-0.35,1.926-0.687,4.157-0.254,6.272  c0.111,0.547,0.187,1.109,0.263,1.673c0.262,1.937,0.532,3.938,2.121,5.537c-0.009,0.075-0.194,0.31-0.502,0.342  c-0.819,0.092-1.591-0.407-1.944-1.258c-0.884-2.131-1.264-4.468-1.632-6.728l-0.019-0.114c-0.1-0.609-0.255-1.28-0.75-1.823  c0.262-0.699,0.109-1.505-0.253-2.128c-0.268-0.462-0.44-0.992-0.624-1.554c-0.287-0.885-0.613-1.883-1.389-2.688  c0-0.005,0-0.01,0.001-0.016c0.015-0.145,0.036-0.342-0.021-0.571c-0.098-0.402-0.512-0.615-0.914-0.52  c-0.37,0.091-0.601,0.468-0.561,0.841c-0.278,0.021-0.574,0.082-0.836,0.281c-1.947,1.478-4.181,1.393-6.545,1.306  c-0.482-0.018-0.965-0.036-1.446-0.041c-0.941-0.01-1.809-0.383-2.727-0.777c-0.63-0.271-1.282-0.542-1.985-0.716  c-0.048-0.11-0.106-0.213-0.169-0.312c-0.222-0.351-0.685-0.454-1.035-0.232c-0.35,0.222-0.454,0.685-0.232,1.035  c0.043,0.067,0.059,0.1,0.063,0.1c-0.002,0.013-0.009,0.042-0.029,0.095c-1.033,2.637-1.417,5.039-1.174,7.347  c0.016,0.147,0.001,0.173-0.115,0.366c-0.04,0.066-0.081,0.136-0.12,0.209c-0.951,1.771-1.176,3.717-0.688,5.952  c0.141,0.643,0.554,1.041,0.886,1.361c0.361,0.349,0.449,0.464,0.424,0.668c0,0.004,0.001,0.007,0.001,0.011  c-0.027,0.008-0.061,0.027-0.084,0.031c-1.307,0.194-2.161,0.14-2.539-0.16c-0.112-0.09-0.266-0.261-0.303-0.712  c-0.188-2.285-0.171-4.631-0.155-6.899c0.01-1.426,0.021-2.9-0.019-4.356c-0.021-0.799,0.098-1.592,0.225-2.431  c0.147-0.975,0.299-1.983,0.222-3.035c-0.018-0.243-0.005-0.494,0.006-0.745c0.042-0.948,0.1-2.247-1.308-3.067  c-0.356-0.206-0.817-0.088-1.025,0.271c-0.208,0.358-0.087,0.817,0.271,1.026c0.57,0.332,0.607,0.73,0.564,1.704  c-0.014,0.31-0.025,0.62-0.004,0.92c0.065,0.886-0.068,1.769-0.209,2.703c-0.13,0.867-0.266,1.763-0.24,2.695  c0.039,1.43,0.028,2.892,0.018,4.305c-0.016,2.302-0.033,4.681,0.16,7.033c0.063,0.764,0.354,1.357,0.866,1.764  c0.579,0.459,1.364,0.601,2.164,0.601c0.521,0,1.048-0.061,1.529-0.131c0.457-0.068,0.833-0.295,1.165-0.494  c0.117-0.069,0.232-0.141,0.351-0.199c0.37-0.186,0.52-0.636,0.335-1.007c-0.113-0.226-0.326-0.355-0.557-0.392  c-0.155-0.539-0.533-0.911-0.813-1.182c-0.26-0.25-0.421-0.413-0.462-0.603c-0.396-1.813-0.249-3.321,0.452-4.729  c0.451,0.415,0.545,1.052,0.641,2.007l0.024,0.236c0.117,1.117,0.331,2.575,0.955,3.941c0.463,1.013,1.192,1.697,2.108,1.979  c0.296,0.091,0.605,0.136,0.923,0.136c0.703,0,1.443-0.221,2.155-0.652c0.098-0.059,0.216-0.096,0.366-0.144  c0.141-0.044,0.279-0.089,0.417-0.149c0.379-0.167,0.552-0.609,0.385-0.988c-0.132-0.3-0.436-0.462-0.746-0.438  c-0.077-0.257-0.24-0.569-0.657-0.741c-0.859-0.354-0.989-1.02-1.144-2.166c-0.032-0.238-0.065-0.477-0.107-0.708  c-0.06-0.329-0.078-0.68-0.097-1.051c-0.013-0.249-0.026-0.498-0.051-0.746c-0.277-2.771-0.202-5.04,0.211-7.118  c0.288,0.051,0.586,0.082,0.896,0.085c0.468,0.005,0.937,0.022,1.406,0.04c0.572,0.021,1.147,0.043,1.724,0.043  c1.164,0,2.328-0.095,3.456-0.45c0.242,0.821,0.195,1.701,0.126,2.631c-0.02,0.269-0.04,0.537-0.053,0.804  c-0.055,1.163-0.205,2.356-0.35,3.511c-0.115,0.919-0.23,1.839-0.304,2.769c-0.066,0.818-0.141,1.745,0.129,2.689  c0.279,0.981,1.264,1.773,2.116,2.124c0.4,0.164,0.79,0.247,1.15,0.247c0.357,0,0.686-0.08,0.97-0.241  c0.384-0.216,1.026-0.577,1.151-1.297c0.081-0.466-0.084-0.938-0.49-1.406c-0.641-0.737-0.828-1.64-0.574-2.758  c0.08-0.347,0.145-0.698,0.209-1.05c0.197-1.085,0.38-2.045,0.983-2.826c0.101,0.201,0.165,0.459,0.224,0.823l0.019,0.115  c0.382,2.345,0.776,4.77,1.728,7.061c0.558,1.345,1.795,2.193,3.146,2.193c0.112,0,0.225-0.006,0.338-0.018  c0.795-0.083,1.5-0.608,1.752-1.307c0.197-0.545,0.081-1.11-0.311-1.514c-1.264-1.302-1.49-2.978-1.729-4.752  c-0.082-0.597-0.162-1.191-0.281-1.772c-0.378-1.853-0.063-3.916,0.261-5.704c0.363-2,1.728-3.271,4.295-3.998  c3.293-0.935,5.067-3.205,5.132-6.566c0.039-2.036,0.133-4.177,0.287-6.544c0.078-1.225,0.59-1.709,1.826-1.73  c0.492-0.009,1.027-0.055,1.608-0.332C55.501,18.063,55.908,17.099,55.348,15.843z M21.597,45.11  c0.022,0.223,0.034,0.448,0.045,0.673c0.021,0.402,0.042,0.818,0.12,1.243c0.039,0.21,0.067,0.425,0.097,0.64  c0.153,1.134,0.346,2.531,1.857,3.26c-0.586,0.302-1.146,0.396-1.628,0.248c-0.495-0.152-0.905-0.557-1.185-1.169  c-0.534-1.168-0.723-2.471-0.827-3.475l-0.023-0.229c-0.108-1.081-0.269-2.524-1.635-3.332c-0.002-0.055,0.005-0.102-0.001-0.161  c-0.208-1.972,0.122-4.052,0.975-6.336c0.497,0.146,0.99,0.336,1.503,0.557c0.313,0.135,0.633,0.266,0.958,0.39  C21.386,39.682,21.298,42.13,21.597,45.11z M33.385,45.313c-0.06,0.33-0.119,0.66-0.194,0.985c-0.358,1.573-0.046,2.982,0.903,4.076  c0.07,0.08,0.107,0.138,0.129,0.156c-0.089,0.085-0.297,0.201-0.394,0.256c-0.117,0.066-0.401,0.084-0.813-0.087  c-0.582-0.239-1.128-0.743-1.243-1.147c-0.195-0.684-0.138-1.4-0.076-2.167c0.072-0.899,0.185-1.797,0.297-2.693  c0.148-1.183,0.302-2.405,0.359-3.626c0.012-0.253,0.031-0.508,0.05-0.764c0.078-1.038,0.16-2.201-0.224-3.347  c0.296-0.166,0.59-0.348,0.878-0.567c0.059-0.019,0.235-0.021,0.354-0.022c0.059-0.001,0.113-0.007,0.172-0.009  c0.439,0.536,0.678,1.217,0.914,1.942c0.199,0.61,0.404,1.242,0.752,1.842c0.017,0.028,0.4,0.699,0.029,1.027  C33.924,42.361,33.638,43.93,33.385,45.313z"/></svg>