<?xml version="1.0" encoding="UTF-8"?>
<svg xmlns="http://www.w3.org/2000/svg" width="16px" height="16px" viewBox="0 0 16 16" version="1.1">
<g id="surface1">
<path style=" stroke:none;fill-rule:nonzero;fill:rgb(0%,0%,0%);fill-opacity:1;" d="M 0.0078125 9.199219 L 4.226562 9.199219 C 4.261719 9.523438 4.347656 9.84375 4.492188 10.140625 L 0.875 12.320312 C 0.398438 11.503906 0.0976562 10.460938 0.0078125 9.199219 Z M 4.125 15.347656 L 5.730469 11.449219 C 5.570312 11.359375 5.410156 11.257812 5.265625 11.136719 L 2.28125 14.121094 C 2.890625 14.667969 3.519531 15.082031 4.125 15.347656 Z M 2.074219 13.921875 L 5.050781 10.945312 C 4.898438 10.789062 4.757812 10.605469 4.625 10.394531 L 1.015625 12.570312 C 1.34375 13.101562 1.707031 13.5625 2.074219 13.921875 Z M 11.886719 14.121094 L 8.902344 11.136719 C 8.871094 11.160156 8.835938 11.1875 8.800781 11.210938 L 10.980469 14.828125 C 11.285156 14.640625 11.585938 14.398438 11.886719 14.121094 Z M 10.738281 14.980469 L 8.566406 11.371094 C 7.753906 11.824219 6.898438 11.921875 5.992188 11.570312 L 4.386719 15.464844 C 6.582031 16.351562 8.855469 16.097656 10.738281 14.980469 Z M 5.367188 6.613281 L 3.1875 3 C 2.871094 3.203125 2.566406 3.4375 2.28125 3.707031 L 5.265625 6.691406 C 5.300781 6.664062 5.332031 6.640625 5.367188 6.613281 Z M 0 8.914062 L 4.210938 8.914062 C 4.21875 8.167969 4.484375 7.484375 5.054688 6.882812 L 2.074219 3.90625 C 0.699219 5.359375 0.015625 7.03125 0 8.914062 Z M 7.085938 6.039062 L 7.085938 1.828125 C 5.6875 1.839844 4.460938 2.214844 3.429688 2.847656 L 5.601562 6.453125 C 6.011719 6.214844 6.5 6.050781 7.085938 6.039062 Z M 12.910156 4.878906 L 9.800781 7.988281 C 9.871094 8.195312 9.917969 8.410156 9.941406 8.628906 L 14.164062 8.628906 C 14.132812 7.347656 13.710938 6.097656 12.910156 4.878906 Z M 14.167969 8.914062 L 9.957031 8.914062 C 9.941406 9.703125 9.648438 10.421875 9.117188 10.945312 L 12.09375 13.921875 C 13.464844 12.574219 14.128906 10.894531 14.167969 8.914062 Z M 7.371094 1.835938 L 7.371094 6.058594 C 7.589844 6.082031 7.804688 6.128906 8.007812 6.195312 L 11.117188 3.089844 C 10.019531 2.320312 8.722656 1.890625 7.371094 1.835938 Z M 13.46875 0.0820312 C 12.242188 0.4375 11.730469 1.804688 12.253906 2.851562 L 7.960938 7.144531 C 6.949219 6.640625 5.621094 7.09375 5.21875 8.269531 C 4.726562 9.703125 5.976562 11.140625 7.460938 10.851562 C 8.773438 10.59375 9.410156 9.15625 8.851562 8.035156 L 13.148438 3.742188 C 14.230469 4.277344 15.632812 3.707031 15.941406 2.4375 C 16.296875 0.96875 14.921875 -0.34375 13.46875 0.0820312 Z M 13.46875 0.0820312 "/>
</g>
</svg>
